# xmcd
#
# Track frame offsets: 
#        150
#        13482
#        27237
#        40800
#        53400
#        67582
#        80715
#        96177
#        110477
#        123630
#        137952
#        149035
#        162525
#        176077
#        188677
#        201300
#
# Disc length: 2852 seconds
#
# Revision: 2
# Processed by: cddbd v1.5.2PL0 Copyright (c) Steve Scherf et al.
# Submitted via: ExactAudioCopy v0.95b4
#
DISCID=ec0b2210
DTITLE=Eck Robertson - Old-Time Texas Fiddler: Vintage Recordings 1922
DTITLE=1929
DYEAR=1998
DGENRE=Old-Timey
TTITLE0=Brillliancy Medley
TTITLE1=Texas Wagoner
TTITLE2=Arkansas Traveler
TTITLE3=Great Big Taters
TTITLE4=Sallie Gooden
TTITLE5=There's a Brown Skin Girl Down the Road Somewhere
TTITLE6=Ragtime Annie
TTITLE7=Amarillo Waltz
TTITLE8=Done Gone
TTITLE9=The Island Unknown - Part 1
TTITLE10=The Island Unknown - Part 2
TTITLE11=Sally Johnson/Billy in the Low Ground
TTITLE12=Turkey in the Straw
TTITLE13=Brown Kelly Waltz - Part 1
TTITLE14=Brown Kelly Waltz - Part 2
TTITLE15=Run Boy Run
EXTD=Recorded New York US-NY, 1922-06-30 (tracks 3,13) and 1922-07-01 (5
EXTD=,7,9,12) - and Dallas US-TX, 1929-08-12 (2,6,8,14,15), 1929-10-10 
EXTD=(4,16), 1929-10-11 (1) and 1929-10-20 (10,11).\nAlexander Campbell 
EXTD="Eck" Robertson (1887-11-20/1975-02-17): fiddle, vocals (10,11]\n
EXTD=Henry C. Gilliland (3,13), Dr. J.B. Cranfill (4,16): fiddles\nNet
EXTD=tie Robertson: guitar (1,2,4,6,8,10,11,14-16), vocals (10,11]\nDu
EXTD=eron Robertson: tenor banjo (1,2,4,6,8,14-16]\nDaphne Roberston: 
EXTD=tenor guitar (1,2,4,6,8,14-16]\nNat Shilkret: piano (9,12]\nCD: C
EXTD=ounty Records CO-CD-3515 (1998-05-19), UPC 009001351524.
EXTT0=
EXTT1=Originally released as "Texas Waggoner", Victor 40145.
EXTT2=Originally released as "Arkansaw Traveler", Victor 18956 (1922-0
EXTT2=9, 1923-04), as by "Uncle Eck Robertson".
EXTT3=
EXTT4=Originally released as "Sally Gooden", Victor 18956 (1922-09, 19
EXTT4=23-04), as by "Uncle Eck Robertson".
EXTT5=Originally released as "There's a Brown Skin Gal Down the Road",
EXTT5=Victor 40145.\nThe CD's track listing apparently shows "There's
EXTT5=a Brownskin Girl Down the Road Somewhere", but the liner notes 
EXTT5=refer to it as "There's a Brown Skin Girl Down the Road Somewher
EXTT5=e".
EXTT6=
EXTT7=
EXTT8=
EXTT9=
EXTT10=
EXTT11=Originally relased as "Sally Johnson and Billy in Love", Victor
EXTT11=19372, as by "Uncle Eck Robertson".
EXTT12=
EXTT13=
EXTT14=
EXTT15=
PLAYORDER=
